<svg width="272" height="272" viewBox="0 0 272 272" fill="none" xmlns="http://www.w3.org/2000/svg">
<path d="M136 272C211.111 272 272 211.111 272 136C272 60.8893 211.111 0 136 0C60.8893 0 0 60.8893 0 136C0 211.111 60.8893 272 136 272Z" fill="white"/>
<path d="M135.991 11.1466C119.591 11.1221 103.349 14.3398 88.1967 20.6148C73.0449 26.8898 59.2831 36.0982 47.7026 47.7106L135.991 135.999V11.1466Z" fill="#2F5846"/>
<path d="M135.991 136.001L224.28 47.7125C212.698 36.1021 198.936 26.895 183.784 20.6202C168.633 14.3453 152.391 11.1264 135.991 11.1486V136.001Z" fill="#E22107"/>
<path d="M135.991 135.999H260.844C260.866 119.6 257.648 103.358 251.373 88.2062C245.098 73.0546 235.89 59.2926 224.28 47.7109L135.991 135.999Z" fill="#2F5846"/>
<path d="M135.991 136L224.28 224.289C235.89 212.707 245.098 198.945 251.373 183.793C257.648 168.642 260.866 152.399 260.844 136H135.991Z" fill="#E22107"/>
<path d="M135.991 136V260.852C152.391 260.875 168.633 257.656 183.784 251.381C198.936 245.106 212.698 235.899 224.28 224.289L135.991 136Z" fill="#2F5846"/>
<path d="M135.991 136L47.7026 224.289C59.2831 235.901 73.0449 245.109 88.1967 251.384C103.349 257.659 119.591 260.877 135.991 260.852V136Z" fill="#E22107"/>
<path d="M11.1388 136C11.1143 152.4 14.332 168.643 20.607 183.794C26.882 198.946 36.0904 212.708 47.7027 224.289L135.991 136H11.1388Z" fill="#2F5846"/>
<path d="M135.991 135.999L47.7027 47.7109C36.0904 59.2914 26.882 73.0532 20.607 88.205C14.332 103.357 11.1143 119.6 11.1388 135.999H135.991Z" fill="#E22107"/>
<path d="M136 151.847C144.752 151.847 151.848 144.752 151.848 136C151.848 127.247 144.752 120.152 136 120.152C127.248 120.152 120.153 127.247 120.153 136C120.153 144.752 127.248 151.847 136 151.847Z" fill="white"/>
<path d="M183.515 223.611C183.515 233.225 176.702 235.062 168.301 235.062C159.9 235.062 153.087 233.225 153.087 223.611C153.087 213.997 159.9 206.221 168.301 206.221C176.702 206.221 183.515 214.006 183.515 223.611Z" fill="#FCD5BB"/>
<path d="M162.807 220.266C163.453 220.266 163.976 219.743 163.976 219.098C163.976 218.453 163.453 217.93 162.807 217.93C162.162 217.93 161.639 218.453 161.639 219.098C161.639 219.743 162.162 220.266 162.807 220.266Z" fill="black"/>
<path d="M173.803 220.266C174.448 220.266 174.972 219.743 174.972 219.098C174.972 218.453 174.448 217.93 173.803 217.93C173.158 217.93 172.635 218.453 172.635 219.098C172.635 219.743 173.158 220.266 173.803 220.266Z" fill="black"/>
<path d="M168.301 186.227L158.857 209.396H177.745L168.301 186.227Z" fill="#E22107"/>
<path d="M157.992 212.928C159.672 212.928 161.033 211.566 161.033 209.887C161.033 208.207 159.672 206.846 157.992 206.846C156.312 206.846 154.951 208.207 154.951 209.887C154.951 211.566 156.312 212.928 157.992 212.928Z" fill="white"/>
<path d="M162.121 212.928C163.8 212.928 165.162 211.566 165.162 209.887C165.162 208.207 163.8 206.846 162.121 206.846C160.441 206.846 159.08 208.207 159.08 209.887C159.08 211.566 160.441 212.928 162.121 212.928Z" fill="white"/>
<path d="M166.241 212.928C167.921 212.928 169.282 211.566 169.282 209.887C169.282 208.207 167.921 206.846 166.241 206.846C164.561 206.846 163.2 208.207 163.2 209.887C163.2 211.566 164.561 212.928 166.241 212.928Z" fill="white"/>
<path d="M170.361 212.928C172.04 212.928 173.402 211.566 173.402 209.887C173.402 208.207 172.04 206.846 170.361 206.846C168.681 206.846 167.32 208.207 167.32 209.887C167.32 211.566 168.681 212.928 170.361 212.928Z" fill="white"/>
<path d="M174.481 212.928C176.161 212.928 177.522 211.566 177.522 209.887C177.522 208.207 176.161 206.846 174.481 206.846C172.802 206.846 171.44 208.207 171.44 209.887C171.44 211.566 172.802 212.928 174.481 212.928Z" fill="white"/>
<path d="M178.61 212.928C180.29 212.928 181.651 211.566 181.651 209.887C181.651 208.207 180.29 206.846 178.61 206.846C176.931 206.846 175.569 208.207 175.569 209.887C175.569 211.566 176.931 212.928 178.61 212.928Z" fill="white"/>
<path d="M168.301 189.812C169.601 189.812 170.655 188.758 170.655 187.458C170.655 186.158 169.601 185.104 168.301 185.104C167.001 185.104 165.947 186.158 165.947 187.458C165.947 188.758 167.001 189.812 168.301 189.812Z" fill="white"/>
<path d="M185.165 220.267C185.523 220.067 185.833 219.791 186.074 219.458C186.314 219.125 186.479 218.744 186.556 218.341C187.555 213.365 180.885 210.663 180.885 210.663L179.476 210.484C179.476 210.484 178.753 211.18 178.584 210.93C179.476 212.83 183.168 220.33 174.811 223.96C172.815 224.596 170.726 224.898 168.631 224.851H168.176C166.081 224.898 163.993 224.596 161.996 223.96C153.381 220.214 157.537 212.366 158.304 210.77C157.93 211.18 157.109 210.484 157.109 210.484L155.709 210.663C155.709 210.663 149.038 213.338 150.037 218.341C150.113 218.745 150.277 219.127 150.518 219.46C150.758 219.793 151.069 220.069 151.428 220.267C150.393 220.765 149.528 221.557 148.939 222.543C148.351 223.529 148.066 224.667 148.12 225.814C148.126 225.947 148.144 226.078 148.173 226.207C148.314 226.85 148.618 227.446 149.055 227.937C149.492 228.429 150.048 228.801 150.67 229.016L151.036 229.141C150.183 230.094 149.593 231.254 149.326 232.506C149.058 233.757 149.122 235.056 149.511 236.275C149.511 236.275 150.884 241.359 157.314 239.646C158.054 241.225 158.937 243.41 161.051 244.284C164.065 245.532 167.204 245.176 168.747 243.508C170.299 245.149 173.429 245.532 176.452 244.284C178.477 243.445 179.324 241.35 180.1 239.825C185.834 240.904 187.074 236.258 187.074 236.258C187.461 235.038 187.524 233.739 187.256 232.488C186.989 231.237 186.401 230.077 185.549 229.123L185.905 228.998C186.529 228.783 187.086 228.412 187.525 227.921C187.964 227.429 188.269 226.833 188.411 226.189C188.436 226.059 188.454 225.928 188.465 225.797C188.516 224.653 188.231 223.52 187.644 222.537C187.058 221.554 186.196 220.765 185.165 220.267Z" fill="white"/>
<path d="M168.301 227.462C170.419 227.462 172.136 225.746 172.136 223.628C172.136 221.51 170.419 219.793 168.301 219.793C166.183 219.793 164.466 221.51 164.466 223.628C164.466 225.746 166.183 227.462 168.301 227.462Z" fill="#E22107"/>
<path d="M167.026 222.613C167.459 222.613 167.811 222.261 167.811 221.828C167.811 221.394 167.459 221.043 167.026 221.043C166.593 221.043 166.241 221.394 166.241 221.828C166.241 222.261 166.593 222.613 167.026 222.613Z" fill="white"/>
<path d="M123.185 63.5495C123.185 73.1542 116.372 74.9913 107.971 74.9913C99.5702 74.9913 92.7568 73.1542 92.7568 63.5495C92.7568 53.9448 99.5613 46.1504 107.971 46.1504C116.381 46.1504 123.185 53.9537 123.185 63.5495Z" fill="#FCD5BB"/>
<path d="M102.477 60.1959C103.122 60.1959 103.645 59.6728 103.645 59.0276C103.645 58.3824 103.122 57.8594 102.477 57.8594C101.832 57.8594 101.309 58.3824 101.309 59.0276C101.309 59.6728 101.832 60.1959 102.477 60.1959Z" fill="black"/>
<path d="M113.464 60.1959C114.109 60.1959 114.632 59.6728 114.632 59.0276C114.632 58.3824 114.109 57.8594 113.464 57.8594C112.819 57.8594 112.296 58.3824 112.296 59.0276C112.296 59.6728 112.819 60.1959 113.464 60.1959Z" fill="black"/>
<path d="M107.971 26.1562L98.5264 49.3253H117.415L107.971 26.1562Z" fill="#E22107"/>
<path d="M97.6612 52.8575C99.3407 52.8575 100.702 51.4959 100.702 49.8164C100.702 48.1369 99.3407 46.7754 97.6612 46.7754C95.9816 46.7754 94.6201 48.1369 94.6201 49.8164C94.6201 51.4959 95.9816 52.8575 97.6612 52.8575Z" fill="white"/>
<path d="M101.79 52.8575C103.47 52.8575 104.831 51.4959 104.831 49.8164C104.831 48.1369 103.47 46.7754 101.79 46.7754C100.111 46.7754 98.749 48.1369 98.749 49.8164C98.749 51.4959 100.111 52.8575 101.79 52.8575Z" fill="white"/>
<path d="M105.91 52.8575C107.59 52.8575 108.951 51.4959 108.951 49.8164C108.951 48.1369 107.59 46.7754 105.91 46.7754C104.231 46.7754 102.869 48.1369 102.869 49.8164C102.869 51.4959 104.231 52.8575 105.91 52.8575Z" fill="white"/>
<path d="M110.031 52.8575C111.71 52.8575 113.072 51.4959 113.072 49.8164C113.072 48.1369 111.71 46.7754 110.031 46.7754C108.351 46.7754 106.99 48.1369 106.99 49.8164C106.99 51.4959 108.351 52.8575 110.031 52.8575Z" fill="white"/>
<path d="M114.15 52.8575C115.83 52.8575 117.191 51.4959 117.191 49.8164C117.191 48.1369 115.83 46.7754 114.15 46.7754C112.471 46.7754 111.109 48.1369 111.109 49.8164C111.109 51.4959 112.471 52.8575 114.15 52.8575Z" fill="white"/>
<path d="M118.28 52.8575C119.959 52.8575 121.321 51.4959 121.321 49.8164C121.321 48.1369 119.959 46.7754 118.28 46.7754C116.6 46.7754 115.239 48.1369 115.239 49.8164C115.239 51.4959 116.6 52.8575 118.28 52.8575Z" fill="white"/>
<path d="M107.971 29.7419C109.271 29.7419 110.325 28.6878 110.325 27.3875C110.325 26.0873 109.271 25.0332 107.971 25.0332C106.67 25.0332 105.616 26.0873 105.616 27.3875C105.616 28.6878 106.67 29.7419 107.971 29.7419Z" fill="white"/>
<path d="M124.834 60.1963C125.192 59.9926 125.501 59.7143 125.741 59.3804C125.981 59.0464 126.146 58.6647 126.226 58.2611C127.224 53.2848 120.554 50.5916 120.554 50.5916L119.145 50.4043C119.145 50.4043 118.422 51.0999 118.208 50.8502C119.1 52.7497 122.792 60.2498 114.436 63.8884C112.439 64.5217 110.351 64.8229 108.256 64.7802H107.801C105.706 64.8229 103.618 64.5217 101.621 63.8884C93.0059 60.1339 97.1617 52.2949 97.9287 50.6986C97.5541 51.0999 96.7337 50.4043 96.7337 50.4043L95.3336 50.5916C95.3336 50.5916 88.6629 53.267 89.6528 58.2611C89.7319 58.6659 89.8981 59.0486 90.1399 59.3828C90.3817 59.7169 90.6932 59.9945 91.0529 60.1963C90.0163 60.6922 89.1493 61.4832 88.5607 62.47C87.972 63.4569 87.688 64.5956 87.7443 65.7433C87.7457 65.8758 87.7637 66.0077 87.7978 66.1357C87.9387 66.7786 88.2423 67.3745 88.6795 67.8663C89.1168 68.3582 89.673 68.7296 90.2949 68.9449L90.6605 69.0698C89.8064 70.0228 89.2157 71.1822 88.9467 72.4334C88.6777 73.6846 88.7397 74.9843 89.1266 76.2042C89.1266 76.2042 90.5089 81.2875 96.9299 79.5752C97.6701 81.1626 98.5619 83.3386 100.675 84.2126C103.69 85.47 106.82 85.1044 108.372 83.4456C109.923 85.0865 113.054 85.47 116.077 84.2126C118.101 83.3743 118.948 81.2785 119.724 79.7535C125.459 80.8415 126.698 76.1863 126.698 76.1863C127.085 74.9671 127.148 73.668 126.881 72.4171C126.614 71.1661 126.025 70.0063 125.173 69.0519L125.53 68.9271C126.153 68.7123 126.711 68.3412 127.149 67.8494C127.588 67.3575 127.893 66.7614 128.036 66.1179C128.061 65.9882 128.079 65.8572 128.089 65.7255C128.145 64.587 127.866 63.4571 127.288 62.4749C126.709 61.4926 125.857 60.7006 124.834 60.1963Z" fill="white"/>
<path d="M107.97 67.3941C110.088 67.3941 111.805 65.6772 111.805 63.5594C111.805 61.4415 110.088 59.7246 107.97 59.7246C105.853 59.7246 104.136 61.4415 104.136 63.5594C104.136 65.6772 105.853 67.3941 107.97 67.3941Z" fill="#E22107"/>
<path d="M106.695 62.5422C107.128 62.5422 107.48 62.1909 107.48 61.7574C107.48 61.324 107.128 60.9727 106.695 60.9727C106.262 60.9727 105.91 61.324 105.91 61.7574C105.91 62.1909 106.262 62.5422 106.695 62.5422Z" fill="white"/>
<path d="M111.672 205.408L112.109 204.614C112.302 204.267 112.422 203.884 112.462 203.488C112.502 203.092 112.461 202.693 112.341 202.314L111.583 199.861C111.556 199.788 111.547 199.71 111.554 199.633C111.562 199.556 111.587 199.481 111.627 199.415L111.761 199.166C111.803 199.09 111.862 199.024 111.933 198.974C112.004 198.924 112.085 198.89 112.171 198.876C112.256 198.861 112.344 198.866 112.428 198.89C112.511 198.914 112.588 198.956 112.653 199.014C112.702 199.058 112.744 199.109 112.778 199.166L113.928 201.261C113.967 201.333 114.028 201.39 114.102 201.424C114.176 201.457 114.259 201.466 114.339 201.449H114.383C114.469 201.43 114.546 201.383 114.601 201.315C114.656 201.247 114.686 201.162 114.686 201.074V196.553C114.687 196.437 114.713 196.323 114.763 196.218C114.812 196.113 114.883 196.021 114.972 195.946C115.11 195.841 115.279 195.783 115.453 195.783C115.627 195.783 115.796 195.841 115.935 195.946C116.037 196.019 116.12 196.116 116.177 196.227C116.234 196.339 116.264 196.463 116.265 196.588V198.746C116.262 198.841 116.296 198.934 116.359 199.005C116.421 199.076 116.509 199.121 116.604 199.13H116.943C117.011 199.139 117.081 199.128 117.144 199.1C117.206 199.072 117.26 199.026 117.299 198.969C117.817 198.21 118.021 197.28 117.87 196.374L117.531 194.385C117.509 194.228 117.518 194.068 117.56 193.915C117.601 193.761 117.673 193.618 117.772 193.494L117.932 193.306C118.091 193.11 118.31 192.972 118.556 192.915C118.802 192.859 119.06 192.887 119.288 192.994C119.437 193.064 119.57 193.166 119.676 193.292C119.782 193.419 119.86 193.566 119.903 193.726L120.287 195.117C120.428 195.603 120.465 196.114 120.394 196.615C120.341 197.045 120.195 197.459 119.966 197.828L119.19 199.085C119.148 199.145 119.126 199.217 119.127 199.29C119.13 199.393 119.172 199.49 119.246 199.562C119.319 199.634 119.417 199.674 119.52 199.674H120.412C120.842 199.669 121.263 199.807 121.607 200.066C121.697 200.14 121.771 200.232 121.821 200.337C121.872 200.441 121.899 200.556 121.901 200.673V200.896C121.899 201.021 121.867 201.143 121.808 201.253C121.749 201.363 121.665 201.458 121.562 201.529C121.424 201.617 121.262 201.661 121.098 201.654L118.557 201.529H118.405L117.683 201.796C117.6 201.83 117.531 201.89 117.487 201.968C117.443 202.046 117.427 202.136 117.442 202.224C117.451 202.285 117.474 202.342 117.51 202.392C117.546 202.442 117.593 202.482 117.647 202.51L119.11 203.241L119.716 203.544C119.851 203.615 119.956 203.732 120.01 203.874C120.054 203.993 120.058 204.123 120.023 204.245C119.988 204.367 119.915 204.475 119.814 204.552L119.556 204.757C119.489 204.81 119.411 204.848 119.328 204.868C119.244 204.888 119.158 204.89 119.074 204.873L118.271 204.721C117.148 204.498 115.981 204.651 114.954 205.158C114.905 205.181 114.863 205.215 114.829 205.257L113.607 206.79C113.542 206.863 113.453 206.909 113.356 206.921C113.259 206.932 113.161 206.908 113.081 206.853L111.824 205.899C111.739 205.853 111.676 205.776 111.647 205.685C111.619 205.593 111.628 205.493 111.672 205.408Z" fill="#9E704E"/>
<path d="M98.2053 205.408L97.7683 204.614C97.5772 204.266 97.4583 203.883 97.4184 203.488C97.3786 203.092 97.4187 202.693 97.5364 202.314L98.3034 199.861C98.3261 199.787 98.3331 199.709 98.3239 199.633C98.3147 199.556 98.2895 199.482 98.2499 199.415L98.1161 199.166C98.0739 199.09 98.0152 199.024 97.9443 198.974C97.8734 198.924 97.7922 198.89 97.7066 198.876C97.621 198.861 97.5332 198.866 97.4497 198.89C97.3662 198.914 97.2892 198.956 97.2243 199.014C97.1781 199.058 97.139 199.109 97.1083 199.166L95.9579 201.261C95.9166 201.333 95.8538 201.389 95.7786 201.423C95.7034 201.456 95.6195 201.465 95.5388 201.449C95.453 201.43 95.3762 201.383 95.321 201.315C95.2658 201.247 95.2357 201.162 95.2356 201.074V196.553C95.2363 196.437 95.2111 196.322 95.1617 196.217C95.1123 196.112 95.0401 196.019 94.9502 195.946C94.8118 195.841 94.6426 195.783 94.4686 195.783C94.2946 195.783 94.1254 195.841 93.987 195.946C93.8863 196.02 93.8046 196.117 93.7488 196.228C93.693 196.34 93.6646 196.463 93.666 196.588V198.746C93.6664 198.842 93.6309 198.935 93.5666 199.006C93.5022 199.077 93.4136 199.121 93.3182 199.13H92.9793C92.9108 199.139 92.8413 199.128 92.7783 199.1C92.7154 199.072 92.6615 199.026 92.6226 198.969C92.1052 198.21 91.9008 197.28 92.0518 196.374L92.3907 194.385C92.4133 194.228 92.4036 194.068 92.3622 193.915C92.3208 193.761 92.2486 193.618 92.1499 193.494L91.9894 193.306C91.8313 193.11 91.6116 192.972 91.3657 192.915C91.1198 192.859 90.862 192.887 90.6339 192.994C90.4845 193.064 90.3522 193.166 90.246 193.292C90.1397 193.419 90.0621 193.566 90.0185 193.726L89.635 195.117C89.5019 195.604 89.4655 196.113 89.528 196.615C89.5855 197.044 89.7312 197.457 89.9561 197.828L90.7409 199.085C90.7764 199.148 90.7948 199.219 90.7944 199.29C90.792 199.393 90.7497 199.49 90.6763 199.562C90.603 199.634 90.5045 199.674 90.402 199.674H89.5102C89.0819 199.667 88.6639 199.805 88.3241 200.066C88.2321 200.138 88.1577 200.23 88.1067 200.335C88.0557 200.441 88.0294 200.556 88.0298 200.673V200.896C88.0303 201.021 88.0615 201.144 88.1205 201.254C88.1796 201.365 88.2648 201.459 88.3687 201.529C88.5029 201.618 88.6624 201.662 88.8235 201.654L91.3651 201.529C91.4153 201.52 91.4666 201.52 91.5167 201.529L92.2391 201.796C92.323 201.828 92.393 201.889 92.437 201.967C92.481 202.045 92.4962 202.136 92.4799 202.224C92.4724 202.285 92.4497 202.343 92.4139 202.393C92.378 202.443 92.3302 202.483 92.2748 202.51L90.8122 203.241L90.2058 203.544C90.0707 203.615 89.9661 203.732 89.9115 203.874C89.868 203.993 89.8636 204.123 89.8989 204.245C89.9341 204.367 90.0073 204.475 90.1077 204.552L90.3663 204.757C90.4353 204.81 90.5146 204.848 90.5991 204.868C90.6837 204.888 90.7715 204.889 90.8568 204.873L91.6505 204.721C92.7772 204.498 93.9461 204.652 94.9769 205.158L95.1018 205.257L96.3592 206.79C96.4244 206.863 96.5137 206.909 96.6105 206.921C96.7074 206.932 96.8051 206.908 96.8854 206.853L98.1696 205.899C98.2355 205.836 98.2756 205.751 98.2822 205.66C98.2888 205.57 98.2614 205.48 98.2053 205.408Z" fill="#9E704E"/>
<path d="M117.727 207.978C117.727 207.978 121.606 204.91 125.753 206.141C125.753 206.141 129.32 207.702 127.787 209.61C127.787 209.61 125.405 212.464 119.76 212.392L116.496 210.698L117.727 207.978Z" fill="#C49A6C"/>
<path d="M117.807 208.771C117.807 208.771 120.483 206.64 123.372 207.496C123.372 207.496 125.833 208.575 124.79 209.904C124.79 209.904 123.14 211.883 119.225 211.83L116.96 210.653L117.807 208.771Z" fill="#9E704E"/>
<path d="M92.1502 207.978C92.1502 207.978 88.2708 204.91 84.124 206.141C84.124 206.141 80.5567 207.702 82.0907 209.61C82.0907 209.61 84.4718 212.464 90.1169 212.392L93.3809 210.698L92.1502 207.978Z" fill="#C49A6C"/>
<path d="M92.0694 208.771C92.0694 208.771 89.394 206.64 86.4957 207.496C86.4957 207.496 84.0432 208.575 85.0866 209.904C85.0866 209.904 86.7365 211.883 90.6515 211.83L92.9167 210.653L92.0694 208.771Z" fill="#9E704E"/>
<path d="M104.938 240.636C115.035 240.636 123.22 232.451 123.22 222.354C123.22 212.257 115.035 204.072 104.938 204.072C94.8414 204.072 86.6562 212.257 86.6562 222.354C86.6562 232.451 94.8414 240.636 104.938 240.636Z" fill="#C49A6C"/>
<path d="M99.1954 222.826C99.8702 222.826 100.417 222.279 100.417 221.605C100.417 220.93 99.8702 220.383 99.1954 220.383C98.5206 220.383 97.9736 220.93 97.9736 221.605C97.9736 222.279 98.5206 222.826 99.1954 222.826Z" fill="black"/>
<path d="M110.691 222.826C111.365 222.826 111.912 222.279 111.912 221.605C111.912 220.93 111.365 220.383 110.691 220.383C110.016 220.383 109.469 220.93 109.469 221.605C109.469 222.279 110.016 222.826 110.691 222.826Z" fill="black"/>
<path d="M104.938 230.335C107.15 230.335 108.942 228.542 108.942 226.33C108.942 224.119 107.15 222.326 104.938 222.326C102.727 222.326 100.934 224.119 100.934 226.33C100.934 228.542 102.727 230.335 104.938 230.335Z" fill="#E22107"/>
<path d="M103.61 225.27C104.063 225.27 104.43 224.902 104.43 224.449C104.43 223.996 104.063 223.629 103.61 223.629C103.156 223.629 102.789 223.996 102.789 224.449C102.789 224.902 103.156 225.27 103.61 225.27Z" fill="white"/>
<path d="M57.9136 90.2768L58.3506 89.492C58.5436 89.1443 58.6637 88.761 58.7036 88.3654C58.7434 87.9698 58.7022 87.5702 58.5825 87.1911L57.8244 84.7386C57.7912 84.669 57.7739 84.5928 57.7739 84.5157C57.7739 84.4385 57.7912 84.3624 57.8244 84.2927L57.9582 84.043C58.0004 83.9671 58.0591 83.9017 58.13 83.8515C58.2009 83.8013 58.2821 83.7677 58.3677 83.7532C58.4533 83.7386 58.5411 83.7435 58.6246 83.7674C58.7081 83.7913 58.7851 83.8337 58.85 83.8914C58.8989 83.9356 58.9409 83.9866 58.9749 84.043L60.1253 86.1388C60.1666 86.21 60.2294 86.2665 60.3046 86.3001C60.3799 86.3337 60.4638 86.3428 60.5444 86.326C60.6294 86.3062 60.7054 86.2586 60.7603 86.1908C60.8152 86.123 60.846 86.0388 60.8477 85.9515V81.439C60.8487 81.3233 60.8748 81.2092 60.924 81.1046C60.9733 80.9999 61.0446 80.9071 61.133 80.8326C61.2714 80.727 61.4406 80.6698 61.6146 80.6698C61.7886 80.6698 61.9578 80.727 62.0962 80.8326C62.1979 80.904 62.2809 80.9987 62.3383 81.1089C62.3957 81.2191 62.4259 81.3415 62.4261 81.4657V83.6328C62.4235 83.7278 62.457 83.8202 62.5199 83.8914C62.5828 83.9626 62.6704 84.0073 62.765 84.0163H63.1039C63.1729 84.0212 63.2421 84.0082 63.3046 83.9785C63.3671 83.9488 63.4208 83.9034 63.4606 83.8468C63.7209 83.4743 63.9053 83.0543 64.0032 82.6105C64.1012 82.1668 64.1107 81.7081 64.0314 81.2606L63.6925 79.263C63.6694 79.1058 63.6788 78.9455 63.7202 78.7921C63.7617 78.6387 63.8342 78.4954 63.9333 78.3712L64.0938 78.175C64.2531 77.9798 64.4733 77.8438 64.7191 77.7888C64.965 77.7338 65.2221 77.7631 65.4494 77.8718C65.5991 77.939 65.732 78.0386 65.8384 78.1636C65.9449 78.2885 66.0222 78.4356 66.0647 78.5941L66.4571 79.9943C66.5923 80.4816 66.6257 80.9916 66.5552 81.4925C66.502 81.923 66.3559 82.3368 66.1271 82.7053L65.4494 83.9271C65.4076 83.9839 65.3856 84.0528 65.3869 84.1233C65.3856 84.1748 65.395 84.226 65.4144 84.2737C65.4338 84.3214 65.4628 84.3645 65.4996 84.4005C65.5364 84.4365 65.5803 84.4645 65.6284 84.4828C65.6765 84.5011 65.7279 84.5093 65.7793 84.5068H66.6711C67.1028 84.4959 67.525 84.6345 67.8661 84.8992C67.9565 84.9707 68.0298 85.0614 68.0807 85.1647C68.1316 85.2681 68.1588 85.3815 68.1604 85.4967V85.7196C68.1607 85.845 68.1299 85.9684 68.0707 86.0789C68.0116 86.1894 67.926 86.2835 67.8216 86.3528C67.6837 86.4424 67.5222 86.489 67.3578 86.4866L64.8251 86.3617C64.7719 86.3532 64.7177 86.3532 64.6646 86.3617L63.9422 86.6293C63.8601 86.6609 63.7913 86.7198 63.7475 86.7961C63.7036 86.8724 63.6874 86.9615 63.7014 87.0484V87.093C63.7117 87.153 63.7355 87.2099 63.7711 87.2594C63.8066 87.3088 63.8529 87.3495 63.9065 87.3784L65.3691 88.1097L65.9755 88.404C66.1112 88.4778 66.2157 88.5982 66.2698 88.7429C66.3133 88.862 66.3177 88.9919 66.2825 89.1138C66.2472 89.2356 66.174 89.3431 66.0736 89.4206L65.815 89.6257C65.7471 89.6774 65.6693 89.7143 65.5864 89.7343C65.5035 89.7542 65.4173 89.7568 65.3334 89.7417L64.5576 89.6257C63.4327 89.4093 62.2679 89.5658 61.24 90.0716C61.1916 90.0945 61.1489 90.128 61.1152 90.1697L59.8488 91.6947C59.786 91.7708 59.6963 91.8198 59.5983 91.8314C59.5003 91.843 59.4016 91.8164 59.3227 91.7571L58.0385 90.8118C57.9518 90.7567 57.8901 90.6698 57.8668 90.5698C57.8434 90.4697 57.8602 90.3645 57.9136 90.2768Z" fill="#9E704E"/>
<path d="M44.4564 90.2768L44.0105 89.492C43.8195 89.1436 43.7005 88.7604 43.6607 88.3651C43.6209 87.9698 43.661 87.5705 43.7787 87.1911L44.5456 84.7386C44.5892 84.5898 44.5732 84.43 44.501 84.2927L44.3583 84.043C44.3162 83.9671 44.2575 83.9017 44.1866 83.8515C44.1157 83.8013 44.0344 83.7677 43.9488 83.7532C43.8632 83.7386 43.7754 83.7435 43.692 83.7674C43.6085 83.7913 43.5314 83.8337 43.4665 83.8914C43.4204 83.9357 43.3813 83.9869 43.3506 84.043L42.2002 86.1388C42.1588 86.21 42.0961 86.2665 42.0209 86.3001C41.9456 86.3337 41.8617 86.3428 41.781 86.326C41.696 86.3062 41.6201 86.2586 41.5652 86.1908C41.5102 86.123 41.4795 86.0388 41.4778 85.9515V81.439C41.4786 81.323 41.4534 81.2083 41.404 81.1034C41.3546 80.9984 41.2823 80.9059 41.1924 80.8326C41.0541 80.727 40.8849 80.6698 40.7109 80.6698C40.5368 80.6698 40.3676 80.727 40.2293 80.8326C40.1287 80.9044 40.047 80.9995 39.9911 81.1098C39.9352 81.22 39.9068 81.3421 39.9083 81.4657V83.6328C39.9087 83.7286 39.8732 83.8211 39.8088 83.8921C39.7445 83.9631 39.6559 84.0074 39.5605 84.0163H39.2216C39.1525 84.0212 39.0834 84.0082 39.0209 83.9785C38.9584 83.9488 38.9046 83.9034 38.8648 83.8468C38.3498 83.0899 38.1454 82.164 38.2941 81.2606L38.633 79.263C38.6583 79.1058 38.65 78.9449 38.6085 78.7912C38.5669 78.6374 38.4932 78.4943 38.3922 78.3712L38.2317 78.175C38.0724 77.9798 37.8522 77.8438 37.6064 77.7888C37.3605 77.7338 37.1034 77.7631 36.8761 77.8718C36.7264 77.939 36.5935 78.0386 36.487 78.1636C36.3806 78.2885 36.3033 78.4356 36.2608 78.5941L35.8773 79.9943C35.7434 80.4818 35.7071 80.9909 35.7703 81.4925C35.8277 81.922 35.9735 82.3349 36.1984 82.7053L36.9831 83.9628C37.0183 84.0222 37.0368 84.0899 37.0366 84.159C37.0379 84.2104 37.0286 84.2616 37.0092 84.3093C36.9898 84.357 36.9608 84.4002 36.924 84.4362C36.8872 84.4722 36.8433 84.5002 36.7952 84.5185C36.7471 84.5368 36.6957 84.5449 36.6443 84.5424H35.7525C35.3235 84.5314 34.9041 84.6702 34.5664 84.9348C34.4745 85.005 34.4002 85.0954 34.3491 85.1991C34.2981 85.3028 34.2717 85.4168 34.2721 85.5324V85.7553C34.2702 85.8809 34.3003 86.005 34.3596 86.1157C34.4188 86.2265 34.5054 86.3204 34.6109 86.3885C34.7461 86.4769 34.9043 86.5234 35.0658 86.5222L37.6074 86.3974C37.6576 86.3889 37.7088 86.3889 37.759 86.3974L38.4814 86.6649C38.5645 86.6951 38.6344 86.7537 38.6784 86.8305C38.7225 86.9072 38.738 86.997 38.7222 87.0841V87.1287C38.7103 87.1893 38.6848 87.2464 38.6478 87.2958C38.6107 87.3453 38.563 87.3857 38.5081 87.414L37.0456 88.1453L36.4481 88.4396C36.308 88.5105 36.1997 88.6314 36.1448 88.7785C36.1014 88.8977 36.0969 89.0276 36.1322 89.1495C36.1675 89.2713 36.2406 89.3788 36.341 89.4563L36.5997 89.6614C36.6696 89.7124 36.749 89.7488 36.8332 89.7687C36.9175 89.7887 37.0048 89.7916 37.0902 89.7773L37.8036 89.6257C38.9314 89.4092 40.099 89.5658 41.13 90.0716L41.2549 90.1697L42.5212 91.6947C42.5509 91.7331 42.5878 91.7652 42.63 91.7891C42.6722 91.8131 42.7187 91.8284 42.7668 91.8342C42.8149 91.84 42.8637 91.8362 42.9104 91.823C42.957 91.8097 43.0006 91.7874 43.0385 91.7572L44.3316 90.8118C44.4166 90.7552 44.4768 90.6684 44.5 90.569C44.5232 90.4696 44.5076 90.3651 44.4564 90.2768Z" fill="#9E704E"/>
<path d="M63.9783 92.846C63.9783 92.846 67.8488 89.7871 72.0046 91.0088C72.0046 91.0088 75.5718 92.5784 74.0379 94.478C74.0379 94.478 71.6568 97.3407 66.0117 97.2693L62.7744 95.566L63.9783 92.846Z" fill="#C49A6C"/>
<path d="M64.0494 93.639C64.0494 93.639 66.7248 91.5166 69.6231 92.3638C69.6231 92.3638 72.0756 93.4518 71.0322 94.7716C71.0322 94.7716 69.3823 96.7514 65.4673 96.7068L63.2021 95.5297L64.0494 93.639Z" fill="#9E704E"/>
<path d="M38.392 92.846C38.392 92.846 34.5126 89.7871 30.3658 91.0088C30.3658 91.0088 26.7985 92.5784 28.3235 94.478C28.3235 94.478 30.7046 97.3407 36.3498 97.2693L39.587 95.566L38.392 92.846Z" fill="#C49A6C"/>
<path d="M38.3119 93.639C38.3119 93.639 35.6365 91.5166 32.747 92.3638C32.747 92.3638 30.2856 93.4518 31.3291 94.7716C31.3291 94.7716 32.9789 96.7514 36.8939 96.7068L39.1591 95.5297L38.3119 93.639Z" fill="#9E704E"/>
<path d="M51.1804 125.513C61.2773 125.513 69.4624 117.328 69.4624 107.231C69.4624 97.1343 61.2773 88.9492 51.1804 88.9492C41.0836 88.9492 32.8984 97.1343 32.8984 107.231C32.8984 117.328 41.0836 125.513 51.1804 125.513Z" fill="#C49A6C"/>
<path d="M45.4371 107.703C46.1119 107.703 46.6589 107.156 46.6589 106.482C46.6589 105.807 46.1119 105.26 45.4371 105.26C44.7623 105.26 44.2153 105.807 44.2153 106.482C44.2153 107.156 44.7623 107.703 45.4371 107.703Z" fill="black"/>
<path d="M56.9327 107.703C57.6075 107.703 58.1545 107.156 58.1545 106.482C58.1545 105.807 57.6075 105.26 56.9327 105.26C56.2579 105.26 55.7109 105.807 55.7109 106.482C55.7109 107.156 56.2579 107.703 56.9327 107.703Z" fill="black"/>
<path d="M51.1805 115.212C53.3919 115.212 55.1847 113.419 55.1847 111.207C55.1847 108.996 53.3919 107.203 51.1805 107.203C48.969 107.203 47.1763 108.996 47.1763 111.207C47.1763 113.419 48.969 115.212 51.1805 115.212Z" fill="#E22107"/>
<path d="M49.8517 110.147C50.3048 110.147 50.6722 109.779 50.6722 109.326C50.6722 108.873 50.3048 108.506 49.8517 108.506C49.3986 108.506 49.0312 108.873 49.0312 109.326C49.0312 109.779 49.3986 110.147 49.8517 110.147Z" fill="white"/>
<path d="M176.336 42.7882L176.773 41.9944C176.966 41.6468 177.086 41.2635 177.126 40.8679C177.166 40.4723 177.125 40.0727 177.005 39.6936L176.247 37.2411C176.217 37.1708 176.201 37.0949 176.201 37.0182C176.201 36.9415 176.217 36.8656 176.247 36.7952L176.381 36.5455C176.423 36.469 176.481 36.403 176.553 36.3527C176.624 36.3024 176.706 36.2691 176.792 36.2553C176.878 36.2415 176.966 36.2476 177.049 36.2732C177.133 36.2988 177.209 36.3431 177.273 36.4029C177.323 36.4417 177.366 36.4902 177.397 36.5455L178.548 38.6413C178.587 38.7146 178.65 38.7727 178.725 38.8066C178.801 38.8406 178.886 38.8483 178.967 38.8286C179.053 38.8102 179.13 38.763 179.185 38.6948C179.24 38.6267 179.27 38.5417 179.27 38.454V33.9504C179.27 33.8332 179.295 33.7174 179.345 33.6111C179.394 33.5048 179.466 33.4106 179.556 33.335C179.694 33.2295 179.863 33.1722 180.037 33.1722C180.211 33.1722 180.38 33.2295 180.519 33.335C180.62 33.4089 180.703 33.5054 180.76 33.6169C180.817 33.7284 180.848 33.8518 180.849 33.9771V36.1175C180.848 36.2109 180.883 36.3012 180.946 36.3705C181.008 36.4398 181.095 36.4831 181.188 36.492H181.535C181.603 36.5001 181.671 36.4893 181.732 36.461C181.793 36.4326 181.846 36.3878 181.883 36.3315C182.409 35.5761 182.615 34.6428 182.454 33.7363L182.115 31.7476C182.091 31.5904 182.1 31.4299 182.141 31.2763C182.183 31.1227 182.256 30.9795 182.356 30.8558L182.516 30.6596C182.676 30.4655 182.896 30.3297 183.141 30.2733C183.386 30.2168 183.643 30.2429 183.872 30.3475C184.021 30.4177 184.154 30.5194 184.26 30.6456C184.366 30.7719 184.444 30.9197 184.487 31.0788L184.88 32.47C185.014 32.9575 185.048 33.4674 184.978 33.9682C184.926 34.3991 184.78 34.8132 184.55 35.1811L183.774 36.4385C183.736 36.5005 183.715 36.5711 183.711 36.6436C183.714 36.7461 183.756 36.8437 183.829 36.9153C183.903 36.987 184.001 37.0271 184.104 37.0271H184.996C185.428 37.0195 185.85 37.1612 186.191 37.4284C186.282 37.4986 186.357 37.589 186.408 37.6927C186.459 37.7963 186.485 37.9104 186.485 38.0259V38.2489C186.483 38.3738 186.451 38.4964 186.392 38.6065C186.333 38.7166 186.249 38.8111 186.146 38.8821C186.009 38.9728 185.846 39.0166 185.682 39.0069L183.15 38.8821C183.099 38.8728 183.048 38.8728 182.998 38.8821L182.267 39.1585C182.185 39.1901 182.116 39.2491 182.072 39.3254C182.028 39.4017 182.012 39.4908 182.026 39.5777V39.6222C182.036 39.6811 182.06 39.7368 182.096 39.7848C182.131 39.8328 182.178 39.8718 182.231 39.8987L183.694 40.63L184.3 40.9332C184.437 41.0051 184.542 41.1261 184.594 41.2721C184.637 41.3899 184.641 41.5184 184.606 41.6387C184.571 41.759 184.498 41.8649 184.398 41.9409L184.14 42.1461C184.073 42.1998 183.995 42.238 183.912 42.2581C183.828 42.2781 183.742 42.2795 183.658 42.262L182.855 42.1104C181.731 41.8892 180.564 42.046 179.538 42.5563C179.487 42.5756 179.444 42.6098 179.413 42.6544L178.254 44.1437C178.188 44.2162 178.099 44.2626 178.002 44.2741C177.905 44.2856 177.808 44.2614 177.727 44.2061L176.443 43.2519C176.374 43.199 176.326 43.1238 176.307 43.0392C176.287 42.9546 176.298 42.8659 176.336 42.7882Z" fill="#9E704E"/>
<path d="M162.879 42.7882L162.433 41.9944C162.242 41.6461 162.123 41.2629 162.083 40.8676C162.043 40.4723 162.084 40.0731 162.201 39.6936L162.968 37.2411C163.026 37.0981 163.026 36.9383 162.968 36.7952L162.826 36.5455C162.784 36.469 162.725 36.403 162.654 36.3527C162.583 36.3024 162.501 36.2691 162.415 36.2553C162.329 36.2415 162.24 36.2476 162.157 36.2732C162.074 36.2988 161.997 36.3431 161.934 36.4029C161.886 36.442 161.846 36.4906 161.818 36.5455L160.667 38.6413C160.627 38.7135 160.564 38.7708 160.489 38.8046C160.413 38.8383 160.329 38.8467 160.248 38.8286C160.163 38.8087 160.087 38.7611 160.032 38.6933C159.977 38.6255 159.947 38.5412 159.945 38.454V33.9504C159.947 33.8329 159.923 33.7165 159.873 33.6099C159.824 33.5033 159.751 33.4093 159.66 33.335C159.521 33.2295 159.352 33.1722 159.178 33.1722C159.004 33.1722 158.835 33.2295 158.697 33.335C158.597 33.4098 158.516 33.5067 158.46 33.6182C158.404 33.7296 158.375 33.8525 158.375 33.9771V36.1175C158.376 36.2123 158.34 36.3038 158.275 36.3733C158.211 36.4428 158.122 36.4853 158.028 36.492H157.689C157.62 36.5007 157.551 36.4903 157.488 36.462C157.425 36.4337 157.371 36.3885 157.332 36.3315C156.815 35.5722 156.61 34.6426 156.761 33.7363L157.1 31.7476C157.129 31.5904 157.122 31.4289 157.08 31.2747C157.038 31.1204 156.963 30.9774 156.859 30.8558L156.699 30.6596C156.539 30.4655 156.319 30.3297 156.074 30.2733C155.829 30.2168 155.572 30.2429 155.343 30.3475C155.194 30.4177 155.062 30.5194 154.955 30.6456C154.849 30.7719 154.772 30.9197 154.728 31.0788L154.344 32.47C154.211 32.9576 154.175 33.4666 154.237 33.9682C154.293 34.3981 154.439 34.8114 154.666 35.1811L155.45 36.4385C155.486 36.501 155.504 36.5717 155.504 36.6436C155.502 36.7461 155.459 36.8437 155.386 36.9153C155.312 36.987 155.214 37.0271 155.111 37.0271H154.22C153.79 37.0193 153.37 37.1612 153.034 37.4284C152.942 37.4986 152.867 37.589 152.816 37.6927C152.765 37.7963 152.739 37.9104 152.739 38.0259V38.2489C152.74 38.3741 152.771 38.4972 152.83 38.6076C152.889 38.718 152.974 38.8122 153.078 38.8821C153.212 38.9716 153.372 39.0153 153.533 39.0069L156.075 38.8821C156.125 38.8736 156.176 38.8736 156.226 38.8821L156.949 39.1585C157.032 39.1887 157.102 39.2473 157.146 39.324C157.19 39.4008 157.205 39.4906 157.189 39.5777V39.6222C157.177 39.6817 157.152 39.7377 157.115 39.7857C157.078 39.8336 157.03 39.8723 156.975 39.8987L155.513 40.63L154.915 40.9332C154.773 41.0018 154.664 41.1236 154.612 41.2721C154.569 41.3899 154.565 41.5184 154.6 41.6387C154.636 41.759 154.709 41.8649 154.808 41.9409L155.067 42.1461C155.136 42.1989 155.215 42.2366 155.3 42.2565C155.384 42.2765 155.472 42.2784 155.557 42.262L156.351 42.1104C157.479 41.8892 158.648 42.046 159.677 42.5563C159.727 42.578 159.77 42.6117 159.802 42.6544L160.962 44.1437C161.024 44.2173 161.112 44.2647 161.208 44.2762C161.304 44.2878 161.401 44.2628 161.479 44.2061L162.772 43.2519C162.84 43.1979 162.887 43.1228 162.906 43.0386C162.926 42.9545 162.916 42.8662 162.879 42.7882Z" fill="#9E704E"/>
<path d="M182.4 45.3577C182.4 45.3577 186.271 42.2988 190.427 43.5206C190.427 43.5206 193.994 45.0812 192.469 46.9897C192.469 46.9897 190.088 49.8435 184.443 49.781L181.179 48.0777L182.4 45.3577Z" fill="#C49A6C"/>
<path d="M182.472 46.1508C182.472 46.1508 185.147 44.0283 188.045 44.8755C188.045 44.8755 190.498 45.9635 189.455 47.2833C189.455 47.2833 187.805 49.2632 183.89 49.2186L181.625 48.0325L182.472 46.1508Z" fill="#9E704E"/>
<path d="M156.815 45.3577C156.815 45.3577 152.935 42.2988 148.788 43.5206C148.788 43.5206 145.221 45.0812 146.746 46.9897C146.746 46.9897 149.127 49.8435 154.772 49.781L158.036 48.0777L156.815 45.3577Z" fill="#C49A6C"/>
<path d="M156.735 46.1508C156.735 46.1508 154.059 44.0283 151.17 44.8755C151.17 44.8755 148.717 45.9635 149.752 47.2833C149.752 47.2833 151.402 49.2632 155.317 49.2186L157.582 48.0325L156.735 46.1508Z" fill="#9E704E"/>
<path d="M169.603 78.0151C179.7 78.0151 187.885 69.83 187.885 59.7331C187.885 49.6363 179.7 41.4512 169.603 41.4512C159.506 41.4512 151.321 49.6363 151.321 59.7331C151.321 69.83 159.506 78.0151 169.603 78.0151Z" fill="#C49A6C"/>
<path d="M163.86 60.2053C164.534 60.2053 165.081 59.6583 165.081 58.9835C165.081 58.3087 164.534 57.7617 163.86 57.7617C163.185 57.7617 162.638 58.3087 162.638 58.9835C162.638 59.6583 163.185 60.2053 163.86 60.2053Z" fill="black"/>
<path d="M175.355 60.2053C176.03 60.2053 176.577 59.6583 176.577 58.9835C176.577 58.3087 176.03 57.7617 175.355 57.7617C174.681 57.7617 174.134 58.3087 174.134 58.9835C174.134 59.6583 174.681 60.2053 175.355 60.2053Z" fill="black"/>
<path d="M169.603 67.7154C171.815 67.7154 173.607 65.9227 173.607 63.7112C173.607 61.4998 171.815 59.707 169.603 59.707C167.392 59.707 165.599 61.4998 165.599 63.7112C165.599 65.9227 167.392 67.7154 169.603 67.7154Z" fill="#E22107"/>
<path d="M168.274 62.6487C168.727 62.6487 169.095 62.2814 169.095 61.8283C169.095 61.3751 168.727 61.0078 168.274 61.0078C167.821 61.0078 167.454 61.3751 167.454 61.8283C167.454 62.2814 167.821 62.6487 168.274 62.6487Z" fill="white"/>
<path d="M227.704 161.042L228.15 160.249C228.341 159.902 228.46 159.52 228.5 159.126C228.54 158.733 228.5 158.335 228.382 157.957L227.615 155.504C227.571 155.355 227.587 155.196 227.659 155.058L227.802 154.809C227.842 154.73 227.899 154.662 227.97 154.61C228.041 154.557 228.123 154.522 228.21 154.508C228.297 154.493 228.386 154.499 228.47 154.525C228.554 154.551 228.631 154.596 228.694 154.657C228.742 154.7 228.782 154.751 228.81 154.809L229.96 156.895C229.999 156.969 230.061 157.029 230.137 157.064C230.213 157.099 230.298 157.109 230.379 157.092H230.433C230.516 157.07 230.59 157.022 230.643 156.954C230.697 156.886 230.726 156.803 230.727 156.717V152.205C230.728 152.088 230.755 151.973 230.806 151.868C230.857 151.763 230.931 151.671 231.022 151.598C231.16 151.493 231.329 151.435 231.503 151.435C231.677 151.435 231.846 151.493 231.985 151.598C232.085 151.67 232.167 151.765 232.223 151.875C232.279 151.986 232.307 152.108 232.306 152.231V154.398C232.305 154.494 232.341 154.587 232.405 154.658C232.47 154.729 232.558 154.773 232.654 154.782H232.992C233.061 154.787 233.131 154.774 233.193 154.744C233.256 154.714 233.309 154.669 233.349 154.612C233.864 153.856 234.069 152.93 233.92 152.026L233.581 150.029C233.554 149.871 233.561 149.71 233.603 149.556C233.645 149.402 233.719 149.259 233.822 149.137L233.982 148.941C234.142 148.745 234.362 148.609 234.608 148.554C234.853 148.499 235.111 148.529 235.338 148.637C235.488 148.705 235.621 148.804 235.727 148.929C235.833 149.054 235.911 149.201 235.953 149.36L236.337 150.76C236.47 151.244 236.507 151.751 236.444 152.249C236.389 152.679 236.243 153.093 236.016 153.462L235.231 154.728C235.194 154.787 235.176 154.855 235.177 154.925C235.177 154.976 235.188 155.026 235.207 155.073C235.227 155.121 235.256 155.163 235.293 155.199C235.329 155.235 235.373 155.263 235.42 155.281C235.468 155.3 235.519 155.309 235.57 155.308H236.462C236.891 155.297 237.31 155.436 237.648 155.7C237.739 155.771 237.814 155.861 237.865 155.965C237.916 156.068 237.942 156.182 237.942 156.298V156.512C237.943 156.637 237.913 156.761 237.853 156.872C237.794 156.982 237.708 157.076 237.603 157.145C237.469 157.235 237.309 157.278 237.148 157.27L234.607 157.154C234.556 157.145 234.505 157.145 234.455 157.154L233.733 157.422C233.649 157.452 233.58 157.51 233.536 157.587C233.492 157.664 233.476 157.754 233.492 157.841C233.502 157.901 233.527 157.957 233.565 158.006C233.602 158.054 233.65 158.092 233.706 158.117L235.168 158.857L235.766 159.152C235.906 159.223 236.014 159.344 236.069 159.491C236.113 159.61 236.117 159.74 236.082 159.862C236.047 159.983 235.973 160.091 235.873 160.168L235.605 160.373C235.538 160.425 235.46 160.462 235.377 160.482C235.294 160.502 235.208 160.505 235.124 160.489L234.33 160.329C233.202 160.108 232.033 160.265 231.004 160.775C230.956 160.8 230.914 160.833 230.879 160.873L229.613 162.398C229.583 162.436 229.546 162.468 229.504 162.492C229.462 162.516 229.415 162.532 229.367 162.537C229.319 162.543 229.27 162.539 229.223 162.526C229.177 162.513 229.133 162.491 229.095 162.46L227.802 161.515C227.737 161.458 227.692 161.38 227.674 161.295C227.656 161.21 227.667 161.121 227.704 161.042Z" fill="#9E704E"/>
<path d="M214.247 161.042L213.81 160.249C213.617 159.903 213.496 159.521 213.455 159.127C213.413 158.733 213.452 158.335 213.569 157.957L214.336 155.504C214.367 155.434 214.383 155.358 214.383 155.281C214.383 155.205 214.367 155.129 214.336 155.058L214.202 154.809C214.161 154.731 214.103 154.665 214.032 154.613C213.961 154.562 213.879 154.528 213.793 154.513C213.707 154.499 213.619 154.504 213.535 154.529C213.451 154.554 213.374 154.598 213.31 154.657C213.265 154.702 213.225 154.753 213.194 154.809L212.044 156.895C212.005 156.969 211.943 157.029 211.867 157.064C211.791 157.099 211.706 157.109 211.625 157.092C211.54 157.072 211.464 157.024 211.409 156.956C211.354 156.889 211.323 156.804 211.321 156.717V152.205C211.32 152.089 211.294 151.975 211.245 151.87C211.196 151.766 211.124 151.673 211.036 151.598C210.898 151.493 210.728 151.435 210.554 151.435C210.38 151.435 210.211 151.493 210.073 151.598C209.971 151.67 209.888 151.764 209.831 151.875C209.773 151.985 209.743 152.107 209.743 152.231V154.398C209.746 154.493 209.712 154.586 209.649 154.657C209.586 154.728 209.499 154.773 209.404 154.782H209.056C208.989 154.786 208.921 154.773 208.86 154.743C208.799 154.713 208.747 154.668 208.708 154.612C208.184 153.86 207.978 152.93 208.138 152.026L208.477 150.029C208.5 149.871 208.49 149.711 208.449 149.558C208.407 149.404 208.335 149.261 208.236 149.137L208.075 148.941C207.916 148.745 207.696 148.609 207.45 148.554C207.204 148.499 206.947 148.529 206.72 148.637C206.569 148.704 206.436 148.803 206.329 148.928C206.223 149.053 206.146 149.201 206.104 149.36L205.712 150.76C205.578 151.244 205.542 151.751 205.605 152.249C205.663 152.68 205.811 153.093 206.042 153.462L206.818 154.728C206.857 154.786 206.879 154.855 206.88 154.925C206.88 154.976 206.87 155.026 206.85 155.073C206.83 155.121 206.801 155.163 206.765 155.199C206.728 155.235 206.685 155.263 206.637 155.281C206.59 155.3 206.539 155.309 206.488 155.308H205.596C205.164 155.297 204.742 155.436 204.401 155.7C204.309 155.771 204.235 155.861 204.184 155.965C204.133 156.068 204.106 156.182 204.107 156.298V156.512C204.108 156.637 204.139 156.76 204.198 156.87C204.257 156.98 204.342 157.075 204.446 157.145C204.583 157.236 204.745 157.28 204.909 157.27L207.442 157.154C207.492 157.145 207.544 157.145 207.594 157.154L208.325 157.422C208.407 157.453 208.476 157.512 208.52 157.588C208.564 157.665 208.58 157.754 208.566 157.841C208.557 157.9 208.533 157.956 208.498 158.005C208.462 158.053 208.415 158.092 208.361 158.117L206.898 158.857L206.292 159.152C206.154 159.223 206.048 159.344 205.997 159.491C205.954 159.61 205.949 159.74 205.985 159.862C206.02 159.983 206.093 160.091 206.194 160.168L206.452 160.373C206.52 160.425 206.598 160.462 206.681 160.482C206.764 160.502 206.85 160.505 206.934 160.489L207.736 160.329C208.861 160.108 210.027 160.265 211.054 160.775C211.103 160.797 211.145 160.831 211.179 160.873L212.445 162.398C212.508 162.474 212.598 162.523 212.696 162.535C212.794 162.546 212.892 162.52 212.971 162.46L214.255 161.515C214.306 161.446 214.332 161.362 214.33 161.277C214.329 161.192 214.299 161.109 214.247 161.042Z" fill="#9E704E"/>
<path d="M233.768 163.647C233.768 163.647 237.647 160.588 241.794 161.81C241.794 161.81 245.362 163.379 243.837 165.279C243.837 165.279 241.456 168.141 235.81 168.07L232.546 166.322L233.768 163.647Z" fill="#C49A6C"/>
<path d="M233.849 164.405C233.849 164.405 236.524 162.282 239.413 163.129C239.413 163.129 241.866 164.217 240.831 165.537C240.831 165.537 239.182 167.517 235.258 167.472L232.992 166.322L233.849 164.405Z" fill="#9E704E"/>
<path d="M208.183 163.647C208.183 163.647 204.303 160.588 200.156 161.81C200.156 161.81 196.589 163.379 198.114 165.279C198.114 165.279 200.495 168.141 206.14 168.07L209.404 166.367L208.183 163.647Z" fill="#C49A6C"/>
<path d="M208.138 164.405C208.138 164.405 205.463 162.282 202.573 163.129C202.573 163.129 200.121 164.217 201.155 165.537C201.155 165.537 202.814 167.517 206.729 167.472L208.994 166.295L208.138 164.405Z" fill="#9E704E"/>
<path d="M220.98 196.277C231.077 196.277 239.262 188.092 239.262 177.995C239.262 167.898 231.077 159.713 220.98 159.713C210.883 159.713 202.698 167.898 202.698 177.995C202.698 188.092 210.883 196.277 220.98 196.277Z" fill="#C49A6C"/>
<path d="M215.237 178.459C215.911 178.459 216.458 177.912 216.458 177.237C216.458 176.563 215.911 176.016 215.237 176.016C214.562 176.016 214.015 176.563 214.015 177.237C214.015 177.912 214.562 178.459 215.237 178.459Z" fill="black"/>
<path d="M226.723 178.459C227.398 178.459 227.945 177.912 227.945 177.237C227.945 176.563 227.398 176.016 226.723 176.016C226.048 176.016 225.501 176.563 225.501 177.237C225.501 177.912 226.048 178.459 226.723 178.459Z" fill="black"/>
<path d="M220.98 185.977C223.191 185.977 224.984 184.184 224.984 181.973C224.984 179.761 223.191 177.969 220.98 177.969C218.769 177.969 216.976 179.761 216.976 181.973C216.976 184.184 218.769 185.977 220.98 185.977Z" fill="#E22107"/>
<path d="M219.651 180.91C220.104 180.91 220.472 180.543 220.472 180.09C220.472 179.637 220.104 179.27 219.651 179.27C219.198 179.27 218.831 179.637 218.831 180.09C218.831 180.543 219.198 180.91 219.651 180.91Z" fill="white"/>
<path d="M51.5818 199.872C61.6245 199.872 69.7657 191.73 69.7657 181.688C69.7657 171.645 61.6245 163.504 51.5818 163.504C41.5391 163.504 33.3979 171.645 33.3979 181.688C33.3979 191.73 41.5391 199.872 51.5818 199.872Z" fill="white"/>
<path d="M45.874 182.15C46.5438 182.15 47.0868 181.607 47.0868 180.937C47.0868 180.268 46.5438 179.725 45.874 179.725C45.2041 179.725 44.6611 180.268 44.6611 180.937C44.6611 181.607 45.2041 182.15 45.874 182.15Z" fill="black"/>
<path d="M57.2983 182.15C57.9681 182.15 58.5112 181.607 58.5112 180.937C58.5112 180.268 57.9681 179.725 57.2983 179.725C56.6285 179.725 56.0854 180.268 56.0854 180.937C56.0854 181.607 56.6285 182.15 57.2983 182.15Z" fill="black"/>
<path d="M51.5818 146.738L41.772 166.661H61.3916L51.5818 146.738Z" fill="#E22107"/>
<path d="M51.5819 150.304C52.9363 150.304 54.0343 149.254 54.0343 147.959C54.0343 146.663 52.9363 145.613 51.5819 145.613C50.2274 145.613 49.1294 146.663 49.1294 147.959C49.1294 149.254 50.2274 150.304 51.5819 150.304Z" fill="white"/>
<path d="M40.8709 169.818C42.6144 169.818 44.0278 168.404 44.0278 166.661C44.0278 164.917 42.6144 163.504 40.8709 163.504C39.1273 163.504 37.7139 164.917 37.7139 166.661C37.7139 168.404 39.1273 169.818 40.8709 169.818Z" fill="white"/>
<path d="M45.1609 169.818C46.9044 169.818 48.3179 168.404 48.3179 166.661C48.3179 164.917 46.9044 163.504 45.1609 163.504C43.4173 163.504 42.0039 164.917 42.0039 166.661C42.0039 168.404 43.4173 169.818 45.1609 169.818Z" fill="white"/>
<path d="M49.4412 169.818C51.1847 169.818 52.5981 168.404 52.5981 166.661C52.5981 164.917 51.1847 163.504 49.4412 163.504C47.6976 163.504 46.2842 164.917 46.2842 166.661C46.2842 168.404 47.6976 169.818 49.4412 169.818Z" fill="white"/>
<path d="M53.7224 169.818C55.466 169.818 56.8794 168.404 56.8794 166.661C56.8794 164.917 55.466 163.504 53.7224 163.504C51.9789 163.504 50.5654 164.917 50.5654 166.661C50.5654 168.404 51.9789 169.818 53.7224 169.818Z" fill="white"/>
<path d="M58.0115 169.818C59.755 169.818 61.1685 168.404 61.1685 166.661C61.1685 164.917 59.755 163.504 58.0115 163.504C56.2679 163.504 54.8545 164.917 54.8545 166.661C54.8545 168.404 56.2679 169.818 58.0115 169.818Z" fill="white"/>
<path d="M62.2922 169.818C64.0358 169.818 65.4492 168.404 65.4492 166.661C65.4492 164.917 64.0358 163.504 62.2922 163.504C60.5487 163.504 59.1353 164.917 59.1353 166.661C59.1353 168.404 60.5487 169.818 62.2922 169.818Z" fill="white"/>
<path d="M51.2965 178.656L49.5664 183.793C49.4296 184.185 49.4542 184.616 49.6348 184.991C49.8153 185.365 50.1371 185.653 50.5295 185.79C51.2027 186.04 51.9432 186.04 52.6163 185.79C52.8125 185.723 52.9934 185.618 53.1486 185.48C53.3038 185.343 53.4302 185.176 53.5206 184.99C53.611 184.803 53.6635 184.6 53.6751 184.393C53.6868 184.186 53.6573 183.979 53.5884 183.784L51.8583 178.656C51.8396 178.596 51.8023 178.544 51.7517 178.506C51.7012 178.469 51.6401 178.449 51.5774 178.449C51.5147 178.449 51.4536 178.469 51.403 178.506C51.3525 178.544 51.3152 178.596 51.2965 178.656Z" fill="#E22107"/>
<path d="M220.65 125.415C230.693 125.415 238.834 117.273 238.834 107.231C238.834 97.1881 230.693 89.0469 220.65 89.0469C210.607 89.0469 202.466 97.1881 202.466 107.231C202.466 117.273 210.607 125.415 220.65 125.415Z" fill="white"/>
<path d="M214.942 107.693C215.612 107.693 216.155 107.15 216.155 106.48C216.155 105.811 215.612 105.268 214.942 105.268C214.273 105.268 213.729 105.811 213.729 106.48C213.729 107.15 214.273 107.693 214.942 107.693Z" fill="black"/>
<path d="M226.366 107.693C227.036 107.693 227.579 107.15 227.579 106.48C227.579 105.811 227.036 105.268 226.366 105.268C225.697 105.268 225.154 105.811 225.154 106.48C225.154 107.15 225.697 107.693 226.366 107.693Z" fill="black"/>
<path d="M220.65 72.2812L210.84 92.2042H230.46L220.65 72.2812Z" fill="#E22107"/>
<path d="M220.65 75.8471C222.004 75.8471 223.102 74.797 223.102 73.5017C223.102 72.2063 222.004 71.1562 220.65 71.1562C219.296 71.1562 218.198 72.2063 218.198 73.5017C218.198 74.797 219.296 75.8471 220.65 75.8471Z" fill="white"/>
<path d="M209.939 95.3608C211.683 95.3608 213.096 93.9474 213.096 92.2039C213.096 90.4603 211.683 89.0469 209.939 89.0469C208.196 89.0469 206.782 90.4603 206.782 92.2039C206.782 93.9474 208.196 95.3608 209.939 95.3608Z" fill="white"/>
<path d="M214.229 95.3608C215.972 95.3608 217.386 93.9474 217.386 92.2039C217.386 90.4603 215.972 89.0469 214.229 89.0469C212.485 89.0469 211.072 90.4603 211.072 92.2039C211.072 93.9474 212.485 95.3608 214.229 95.3608Z" fill="white"/>
<path d="M218.51 95.3608C220.253 95.3608 221.667 93.9474 221.667 92.2039C221.667 90.4603 220.253 89.0469 218.51 89.0469C216.766 89.0469 215.353 90.4603 215.353 92.2039C215.353 93.9474 216.766 95.3608 218.51 95.3608Z" fill="white"/>
<path d="M222.791 95.3608C224.534 95.3608 225.948 93.9474 225.948 92.2039C225.948 90.4603 224.534 89.0469 222.791 89.0469C221.047 89.0469 219.634 90.4603 219.634 92.2039C219.634 93.9474 221.047 95.3608 222.791 95.3608Z" fill="white"/>
<path d="M227.071 95.3608C228.814 95.3608 230.228 93.9474 230.228 92.2039C230.228 90.4603 228.814 89.0469 227.071 89.0469C225.327 89.0469 223.914 90.4603 223.914 92.2039C223.914 93.9474 225.327 95.3608 227.071 95.3608Z" fill="white"/>
<path d="M231.361 95.3608C233.104 95.3608 234.518 93.9474 234.518 92.2039C234.518 90.4603 233.104 89.0469 231.361 89.0469C229.617 89.0469 228.204 90.4603 228.204 92.2039C228.204 93.9474 229.617 95.3608 231.361 95.3608Z" fill="white"/>
<path d="M220.365 104.199L218.635 109.336C218.566 109.53 218.536 109.736 218.547 109.942C218.558 110.148 218.61 110.349 218.7 110.535C218.789 110.721 218.915 110.887 219.069 111.024C219.223 111.161 219.403 111.266 219.598 111.333C220.271 111.583 221.011 111.583 221.684 111.333C221.881 111.266 222.061 111.161 222.217 111.023C222.372 110.886 222.498 110.719 222.589 110.532C222.679 110.346 222.732 110.143 222.743 109.936C222.755 109.729 222.725 109.522 222.657 109.327L220.926 104.199C220.908 104.139 220.87 104.087 220.82 104.049C220.769 104.012 220.708 103.992 220.646 103.992C220.583 103.992 220.522 104.012 220.471 104.049C220.421 104.087 220.383 104.139 220.365 104.199Z" fill="#E22107"/>
<path d="M136 144.534C140.714 144.534 144.535 140.713 144.535 135.999C144.535 131.286 140.714 127.465 136 127.465C131.287 127.465 127.466 131.286 127.466 135.999C127.466 140.713 131.287 144.534 136 144.534Z" fill="url(#paint0_linear_334_2585)"/>
<defs>
<linearGradient id="paint0_linear_334_2585" x1="142.237" y1="139.794" x2="131.691" y2="132.831" gradientUnits="userSpaceOnUse">
<stop stop-color="#F31523"/>
<stop offset="1" stop-color="#F31523" stop-opacity="0.7"/>
</linearGradient>
</defs>
</svg>
